<svg width="985" height="887" viewBox="0 0 985 887" fill="none" xmlns="http://www.w3.org/2000/svg">
<path opacity="0.7" fill-rule="evenodd" clip-rule="evenodd" d="M485.88 601.27C468.608 641.115 464.669 686.902 431.971 716.48C399.043 746.266 353.44 765.175 308.365 761.848C266.426 758.752 242.474 715.179 203.646 699.626C155.91 680.504 91.0705 699.329 57.62 661.408C23.5172 622.748 28.0278 563.411 39.9228 514.023C51.6122 465.488 76.8536 415.239 122.559 391.781C165.636 369.672 217.065 405.671 265.296 398.351C317.379 390.446 358.539 339.37 410.482 348.082C468.408 357.797 533.038 391.615 549.226 445.973C565.544 500.771 508.685 548.657 485.88 601.27Z" fill="#55013A"/>
<path opacity="0.7" fill-rule="evenodd" clip-rule="evenodd" d="M505.043 609.282C487.772 649.127 483.833 694.914 451.135 724.492C418.207 754.278 372.604 773.187 327.529 769.86C285.59 766.764 261.637 723.191 222.809 707.638C175.074 688.516 110.234 707.341 76.7836 669.42C42.6808 630.76 47.1913 571.423 59.0864 522.035C70.7757 473.5 96.0172 423.251 141.723 399.793C184.799 377.684 236.228 413.683 284.46 406.363C336.542 398.458 377.702 347.381 429.645 356.094C487.571 365.809 552.202 399.627 568.389 453.985C584.708 508.783 527.849 556.669 505.043 609.282Z" stroke="black" stroke-width="2"/>
<path opacity="0.7" fill-rule="evenodd" clip-rule="evenodd" d="M879.631 640.513C833.98 646.012 788.92 633.988 746.364 608.682C700.381 581.338 655.036 547.792 634.196 494.565C611.045 435.431 599.194 362.223 631.046 314.138C661.563 268.067 728.434 293.593 778.33 276.969C834.99 258.093 879.353 188.139 937.989 211.879C999.868 236.932 1034.99 316.18 1050.71 387.246C1065.55 454.325 1053.45 524.168 1018.51 575.904C987.371 621.997 932.543 634.14 879.631 640.513Z" fill="#55013A"/>
<path opacity="0.7" fill-rule="evenodd" clip-rule="evenodd" d="M866.492 660.216C820.826 665.66 775.709 653.433 733.066 627.814C686.989 600.133 641.535 566.196 620.555 512.464C597.247 452.77 585.214 378.904 616.969 330.476C647.394 284.076 714.368 309.97 764.255 293.314C820.905 274.401 865.127 203.943 923.857 228.017C985.835 253.423 1021.17 333.433 1037.07 405.145C1052.07 472.835 1040.14 543.254 1005.3 595.358C974.254 641.779 919.422 653.905 866.492 660.216Z" stroke="black" stroke-width="2"/>
<path fill-rule="evenodd" clip-rule="evenodd" d="M904.759 731.048C864.812 777.614 805.446 804.853 732.978 809.311C658.318 813.903 581.033 790.807 503.669 755.72C393.078 705.564 249.128 669.346 202.521 568.733C155.447 467.11 227.933 378.658 303.49 323.576C364.356 279.203 470.334 321.258 555.353 311.514C655.928 299.987 735.197 204.558 838.047 262.311C940.327 319.745 949.773 444.673 963.435 540.665C974.153 615.978 948.94 679.545 904.759 731.048Z" fill="#30003E"/>
<path fill-rule="evenodd" clip-rule="evenodd" d="M896.765 719.332C854.258 769.676 792.547 800.376 718.216 807.582C641.637 815.005 563.334 793.411 485.368 759.214C373.915 710.329 227.832 677.258 183.625 573.104C138.975 467.904 214.868 386.278 294.12 325.744C357.963 276.979 469.259 325.059 556.62 311.86C659.965 296.245 759.356 200.103 862.621 257.244C965.314 314.068 954.474 398.803 965.121 499.244C965.121 556.243 943.778 663.651 896.765 719.332Z" stroke="black" stroke-width="2"/>
</svg>
